<svg version="1.1" xmlns="http://www.w3.org/2000/svg" xmlns:xlink="http://www.w3.org/1999/xlink">
  <symbol id="logo" viewBox="0 0 330 176">
    <path d="M42.78 0.0200195C19.15 0.0200195 0 18.89 0 42.17C0 65.45 19.15 84.32 42.78 84.32C66.41 84.32 85.56 65.45 85.56 42.17C85.56 18.89 66.41 0.0200195 42.78 0.0200195ZM5.47 33.2C7.61745 24.939 12.4459 17.6244 19.1981 12.403C25.9503 7.1816 34.2445 4.34882 42.78 4.34882C51.3155 4.34882 59.6097 7.1816 66.3619 12.403C73.1142 17.6244 77.9426 24.939 80.09 33.2C80.1697 33.5015 80.1778 33.8174 80.1136 34.1225C80.0495 34.4277 79.9149 34.7136 79.7206 34.9575C79.5263 35.2013 79.2776 35.3964 78.9945 35.527C78.7114 35.6577 78.4016 35.7204 78.09 35.71H68.23C67.8202 35.7106 67.4201 35.5853 67.0838 35.351C66.7476 35.1166 66.4914 34.7847 66.35 34.4C64.635 29.5122 61.444 25.2777 57.2181 22.282C52.9921 19.2863 47.94 17.6772 42.76 17.6772C37.58 17.6772 32.5279 19.2863 28.302 22.282C24.0761 25.2777 20.885 29.5122 19.17 34.4C19.0286 34.7847 18.7725 35.1166 18.4362 35.351C18.1 35.5853 17.6998 35.7106 17.29 35.71H7.43C7.11949 35.7149 6.81212 35.6474 6.53221 35.5129C6.2523 35.3784 6.00756 35.1806 5.81738 34.9351C5.62719 34.6896 5.49679 34.4032 5.43649 34.0986C5.3762 33.7939 5.38767 33.4795 5.47 33.18V33.2ZM42.78 80.02C34.178 80.0649 25.8116 77.2112 19.0301 71.9191C12.2485 66.627 7.44704 59.205 5.4 50.85C5.33478 50.5896 5.32965 50.3178 5.385 50.0551C5.44035 49.7924 5.55472 49.5457 5.71947 49.3338C5.88422 49.1218 6.09504 48.9501 6.33595 48.8316C6.57685 48.7132 6.84155 48.6511 7.11 48.65H17.49C17.8646 48.6549 18.2281 48.7772 18.5295 48.9997C18.8309 49.2221 19.0549 49.5335 19.17 49.89C20.8766 54.7918 24.0665 59.0409 28.2972 62.0477C32.528 65.0546 37.5896 66.67 42.78 66.67C47.9704 66.67 53.0321 65.0546 57.2628 62.0477C61.4935 59.0409 64.6834 54.7918 66.39 49.89C66.5051 49.5335 66.7291 49.2221 67.0305 48.9997C67.3319 48.7772 67.6954 48.6549 68.07 48.65H78.45C78.7185 48.6511 78.9832 48.7132 79.2241 48.8316C79.465 48.9501 79.6758 49.1218 79.8405 49.3338C80.0053 49.5457 80.1197 49.7924 80.175 50.0551C80.2304 50.3178 80.2252 50.5896 80.16 50.85C78.1113 59.2041 73.3095 66.6251 66.5283 71.9169C59.747 77.2087 51.3815 80.0631 42.78 80.02V80.02Z" />
    <path d="M97.5 82.2401V3.41013C97.5 2.86378 97.717 2.33979 98.1034 1.95346C98.4897 1.56714 99.0137 1.3501 99.56 1.3501H110.01C110.333 1.35087 110.651 1.42726 110.94 1.57312C111.228 1.71898 111.478 1.93029 111.67 2.19012L146.23 49.3601C146.487 49.7092 146.847 49.9686 147.259 50.1013C147.671 50.234 148.115 50.2333 148.527 50.0993C148.939 49.9653 149.298 49.7048 149.554 49.3549C149.809 49.0049 149.948 48.5834 149.95 48.1501V3.41013C149.95 2.86378 150.167 2.33979 150.553 1.95346C150.94 1.56714 151.464 1.3501 152.01 1.3501H163.32C163.866 1.3501 164.39 1.56714 164.777 1.95346C165.163 2.33979 165.38 2.86378 165.38 3.41013V82.2401C165.38 82.7865 165.163 83.3104 164.777 83.6967C164.39 84.0831 163.866 84.3001 163.32 84.3001H153.32C152.997 84.3009 152.678 84.2252 152.389 84.0793C152.101 83.9333 151.851 83.7211 151.66 83.4601L116.75 36.0201C116.495 35.6682 116.135 35.4064 115.721 35.2725C115.308 35.1387 114.862 35.1397 114.45 35.2755C114.037 35.4113 113.678 35.6747 113.424 36.0279C113.171 36.381 113.036 36.8055 113.04 37.2401V82.2401C113.037 82.7856 112.819 83.3081 112.434 83.6938C112.048 84.0796 111.526 84.2975 110.98 84.3001H99.56C99.0137 84.3001 98.4897 84.0831 98.1034 83.6967C97.717 83.3104 97.5 82.7865 97.5 82.2401V82.2401Z" />
    <path d="M204.49 82.1501V47.7301C204.491 47.311 204.369 46.9009 204.14 46.5501L176.8 4.67007C176.59 4.3465 176.471 3.97241 176.455 3.58704C176.44 3.20166 176.528 2.8192 176.711 2.47971C176.894 2.14021 177.165 1.85622 177.496 1.65747C177.826 1.45872 178.204 1.35253 178.59 1.35007H192.23C192.59 1.35285 192.943 1.44587 193.257 1.62057C193.572 1.79528 193.838 2.0461 194.03 2.35007L210.77 28.1201C210.965 28.4193 211.232 28.665 211.547 28.8351C211.861 29.0052 212.213 29.0943 212.57 29.0943C212.927 29.0943 213.279 29.0052 213.593 28.8351C213.908 28.665 214.175 28.4193 214.37 28.1201L231.23 2.32007C231.421 2.01751 231.686 1.76759 231.998 1.59296C232.311 1.41832 232.662 1.32451 233.02 1.32007H246.03C246.417 1.32075 246.796 1.42563 247.128 1.62366C247.46 1.82168 247.732 2.10554 247.916 2.44534C248.101 2.78515 248.19 3.16833 248.175 3.55457C248.159 3.9408 248.04 4.31579 247.83 4.64008L220.6 46.1701C220.372 46.5178 220.251 46.9244 220.25 47.3401V82.1201C220.251 82.402 220.197 82.6813 220.09 82.9421C219.983 83.2029 219.826 83.44 219.627 83.6398C219.428 83.8395 219.192 83.9981 218.931 84.1062C218.671 84.2144 218.392 84.2701 218.11 84.2701H206.64C206.075 84.2701 205.533 84.0477 205.13 83.651C204.728 83.2543 204.498 82.7151 204.49 82.1501V82.1501Z" />
    <path d="M275.06 2.27005L288.98 23.54C289.16 23.8272 289.41 24.0641 289.706 24.2282C290.003 24.3924 290.336 24.4785 290.675 24.4785C291.014 24.4785 291.347 24.3924 291.644 24.2282C291.94 24.0641 292.19 23.8272 292.37 23.54L306.48 2.25006C306.663 1.96883 306.913 1.73809 307.209 1.57907C307.504 1.42005 307.835 1.33786 308.17 1.34006H321.58C321.952 1.32861 322.321 1.42139 322.643 1.60794C322.965 1.79449 323.229 2.0674 323.405 2.3959C323.581 2.72441 323.661 3.09545 323.637 3.46722C323.613 3.83899 323.486 4.19671 323.27 4.50006L300.67 38.3701C300.444 38.7018 300.324 39.0938 300.324 39.4951C300.324 39.8963 300.444 40.2883 300.67 40.6201L327.78 81.13C327.996 81.4334 328.123 81.7911 328.147 82.1629C328.171 82.5346 328.091 82.9057 327.915 83.2342C327.739 83.5627 327.475 83.8356 327.153 84.0222C326.831 84.2087 326.462 84.3015 326.09 84.29H312.46C312.127 84.2916 311.799 84.2102 311.506 84.053C311.213 83.8959 310.963 83.668 310.78 83.39L292.13 55.86C291.949 55.5772 291.7 55.3444 291.406 55.1832C291.111 55.022 290.781 54.9374 290.445 54.9374C290.109 54.9374 289.779 55.022 289.485 55.1832C289.19 55.3444 288.941 55.5772 288.76 55.86L270.23 83.4001C270.046 83.6794 269.795 83.9082 269.5 84.0654C269.204 84.2227 268.874 84.3033 268.54 84.3H255.14C254.766 84.3129 254.396 84.2206 254.072 84.0336C253.748 83.8466 253.482 83.5724 253.306 83.2421C253.13 82.9119 253.05 82.5389 253.076 82.1655C253.101 81.7922 253.231 81.4334 253.45 81.13L280.65 40.7501C280.878 40.4173 281 40.0234 281 39.6201C281 39.2167 280.878 38.8228 280.65 38.4901L258.05 4.49005C257.834 4.1867 257.707 3.82898 257.683 3.45721C257.659 3.08544 257.739 2.7144 257.915 2.38589C258.091 2.05739 258.355 1.78448 258.677 1.59793C258.999 1.41138 259.368 1.3186 259.74 1.33005H273.37C273.708 1.33106 274.041 1.41782 274.336 1.58221C274.632 1.7466 274.881 1.98326 275.06 2.27005Z" />
    <path d="M9.80002 151.54C5.32002 147.09 3.04001 141.28 3.04001 134.1C3.04001 126.92 5.32002 121.2 9.80002 116.93C11.9474 114.813 14.4944 113.145 17.2928 112.022C20.0912 110.899 23.0851 110.345 26.1 110.39C30.0393 110.337 33.9396 111.175 37.51 112.84C37.8398 113.006 38.1172 113.261 38.3114 113.575C38.5055 113.889 38.6089 114.251 38.61 114.62V121.27C38.6043 121.592 38.521 121.907 38.3672 122.19C38.2134 122.473 37.9937 122.714 37.7268 122.894C37.4598 123.073 37.1534 123.186 36.8337 123.222C36.5139 123.258 36.1902 123.216 35.89 123.1C33.3373 122.111 30.6275 121.589 27.89 121.56C24.4188 121.468 21.0502 122.742 18.51 125.11C17.2806 126.272 16.3129 127.683 15.6715 129.249C15.03 130.815 14.7295 132.499 14.79 134.19C14.735 135.902 15.0455 137.607 15.7007 139.19C16.356 140.772 17.3409 142.198 18.59 143.37C21.1089 145.719 24.4467 146.99 27.89 146.91C30.8618 146.951 33.8111 146.39 36.56 145.26C36.8599 145.142 37.1838 145.099 37.5042 145.133C37.8245 145.168 38.1318 145.279 38.3999 145.458C38.6679 145.637 38.8888 145.877 39.0438 146.16C39.1988 146.442 39.2833 146.758 39.29 147.08V153.53C39.295 153.886 39.2049 154.237 39.0291 154.546C38.8533 154.855 38.5982 155.112 38.29 155.29C34.4698 157.194 30.2477 158.151 25.98 158.08C22.9821 158.132 20.0045 157.58 17.2247 156.456C14.4448 155.333 11.9197 153.661 9.80002 151.54V151.54Z" />
    <path d="M49.42 154.92V113.55C49.42 113.02 49.6307 112.511 50.0058 112.136C50.3809 111.761 50.8896 111.55 51.42 111.55H59.42C59.9504 111.55 60.4592 111.761 60.8342 112.136C61.2093 112.511 61.42 113.02 61.42 113.55C61.4312 113.927 61.5488 114.294 61.7594 114.607C61.9699 114.92 62.2648 115.167 62.6099 115.32C62.9551 115.473 63.3363 115.525 63.7097 115.47C64.0831 115.415 64.4334 115.256 64.72 115.01C65.5348 114.27 66.4113 113.601 67.34 113.01C69.9487 111.297 72.9993 110.38 76.12 110.37C76.572 110.346 77.0253 110.376 77.47 110.46V120.65C77.4705 120.923 77.4151 121.193 77.3071 121.444C77.1992 121.695 77.0411 121.921 76.8425 122.108C76.6438 122.296 76.409 122.441 76.1523 122.534C75.8956 122.627 75.6226 122.666 75.35 122.65C74.84 122.6 74.35 122.57 73.76 122.57C71.2407 122.593 68.7756 123.304 66.6321 124.628C64.4885 125.952 62.7482 127.838 61.6 130.08C61.4768 130.339 61.4152 130.623 61.42 130.91V154.91C61.42 155.441 61.2093 155.949 60.8342 156.324C60.4592 156.699 59.9504 156.91 59.42 156.91H51.42C50.8913 156.91 50.3841 156.701 50.0093 156.328C49.6345 155.955 49.4227 155.449 49.42 154.92Z" />
    <path d="M84.9 172.54V165.66C84.911 165.35 84.9938 165.047 85.142 164.775C85.2901 164.503 85.4994 164.269 85.7535 164.091C86.0076 163.914 86.2994 163.798 86.6059 163.753C86.9125 163.707 87.2254 163.734 87.52 163.83C88.7464 164.233 90.029 164.439 91.32 164.44C95.45 164.44 98.03 161.85 100.39 156.12C100.59 155.633 100.59 155.087 100.39 154.6L83.67 114.31C83.55 114.009 83.505 113.683 83.539 113.361C83.5729 113.038 83.6847 112.729 83.8648 112.459C84.0449 112.189 84.2878 111.968 84.5727 111.813C84.8576 111.658 85.1758 111.575 85.5 111.57H94C94.4041 111.572 94.798 111.696 95.1301 111.927C95.4621 112.157 95.7166 112.482 95.86 112.86L104.62 136.28C104.767 136.653 105.024 136.973 105.355 137.199C105.687 137.424 106.079 137.545 106.48 137.545C106.881 137.545 107.273 137.424 107.605 137.199C107.936 136.973 108.193 136.653 108.34 136.28L116.62 112.93C116.759 112.545 117.013 112.212 117.347 111.976C117.682 111.74 118.081 111.612 118.49 111.61H126.78C127.101 111.614 127.416 111.695 127.699 111.846C127.982 111.997 128.225 112.215 128.406 112.479C128.588 112.744 128.703 113.049 128.742 113.367C128.781 113.686 128.742 114.009 128.63 114.31L110.16 161.62C106.44 170.98 100.87 175.62 93.35 175.62C90.883 175.684 88.4272 175.266 86.12 174.39C85.7569 174.236 85.4474 173.979 85.2303 173.65C85.0133 173.32 84.8983 172.934 84.9 172.54Z" />
    <path d="M134.57 152.7V145.93C134.575 145.596 134.664 145.268 134.828 144.977C134.992 144.686 135.227 144.441 135.51 144.264C135.794 144.087 136.117 143.984 136.451 143.964C136.784 143.944 137.118 144.008 137.42 144.15C141.891 146.385 146.812 147.575 151.81 147.63C156.63 147.63 159.08 146.36 159.08 143.82C159.08 142.64 158.57 141.73 156.96 141C156.255 140.666 155.523 140.395 154.77 140.19L151.64 139.37C150.21 138.91 149.02 138.64 148.26 138.37C138.55 135.55 134.57 132.28 134.57 124.29C134.57 115.66 141.57 110.39 153.16 110.39C159.04 110.39 164.05 111.57 168.05 113.98C168.33 114.162 168.56 114.411 168.719 114.704C168.878 114.998 168.961 115.326 168.96 115.66V122.08C168.955 122.42 168.863 122.752 168.694 123.047C168.524 123.341 168.282 123.588 167.991 123.763C167.7 123.938 167.369 124.036 167.029 124.048C166.69 124.06 166.353 123.985 166.05 123.83C162.227 121.834 157.983 120.778 153.67 120.75C149.19 120.75 146.91 121.93 146.91 124.38C146.91 125.93 148.01 126.56 149.28 127.38C150.18 127.73 151.79 128.17 152.81 128.53L153.02 128.58L157.39 129.58C166.51 131.85 171.16 136.03 171.16 143.93C171.21 145.931 170.767 147.915 169.868 149.704C168.97 151.494 167.645 153.034 166.01 154.19C162.54 156.83 158.01 158.1 152.32 158.1C145.32 158.1 139.74 156.85 135.52 154.41C135.224 154.235 134.979 153.985 134.812 153.684C134.645 153.384 134.562 153.044 134.57 152.7V152.7Z" />
    <path d="M182.02 122.29H177.7C177.17 122.29 176.661 122.079 176.286 121.704C175.911 121.329 175.7 120.82 175.7 120.29V113.53C175.7 113 175.911 112.491 176.286 112.116C176.661 111.741 177.17 111.53 177.7 111.53H182.02C182.55 111.53 183.059 111.319 183.434 110.944C183.809 110.569 184.02 110.06 184.02 109.53V101.05C184.02 100.52 184.231 100.011 184.606 99.6358C184.981 99.2608 185.49 99.05 186.02 99.05H193.97C194.5 99.05 195.009 99.2608 195.384 99.6358C195.759 100.011 195.97 100.52 195.97 101.05V109.53C195.97 110.06 196.181 110.569 196.556 110.944C196.931 111.319 197.44 111.53 197.97 111.53H205.97C206.5 111.53 207.009 111.741 207.384 112.116C207.759 112.491 207.97 113 207.97 113.53V120.29C207.97 120.82 207.759 121.329 207.384 121.704C207.009 122.079 206.5 122.29 205.97 122.29H197.97C197.44 122.29 196.931 122.501 196.556 122.876C196.181 123.251 195.97 123.76 195.97 124.29V140.29C195.97 144.74 197.66 146.65 201.72 146.65C202.941 146.646 204.154 146.461 205.32 146.1C205.615 146.014 205.926 145.997 206.228 146.05C206.531 146.104 206.817 146.226 207.064 146.408C207.312 146.59 207.514 146.826 207.656 147.099C207.797 147.371 207.874 147.673 207.88 147.98V154.5C207.88 154.868 207.778 155.229 207.586 155.544C207.393 155.858 207.118 156.112 206.79 156.28C203.981 157.603 200.892 158.224 197.79 158.09C188.58 158.09 184.02 153 184.02 142.83V124.27C184.015 123.743 183.802 123.24 183.427 122.869C183.053 122.498 182.547 122.29 182.02 122.29Z" />
    <path d="M259.87 148.96V154.77C259.866 155.117 259.772 155.458 259.597 155.757C259.421 156.057 259.171 156.306 258.87 156.48C257.197 157.373 255.315 157.802 253.42 157.72C249.54 157.72 246.76 156.48 244.98 153.96C244.815 153.74 244.607 153.557 244.368 153.422C244.129 153.286 243.865 153.201 243.592 153.172C243.319 153.143 243.043 153.17 242.781 153.253C242.52 153.335 242.277 153.47 242.07 153.65C238.517 156.643 233.984 158.221 229.34 158.08C220.21 158.08 213.79 152.08 213.79 142.91C213.79 138.1 215.39 134.37 218.69 131.83C222.064 129.255 226.217 127.911 230.46 128.02C234.693 127.886 238.887 128.858 242.63 130.84V129.48C242.63 123.76 238.91 120.94 231.48 120.94C228.018 120.931 224.599 121.707 221.48 123.21C221.178 123.338 220.85 123.389 220.524 123.361C220.197 123.332 219.883 123.223 219.608 123.044C219.334 122.866 219.108 122.622 218.949 122.335C218.791 122.049 218.705 121.727 218.7 121.4V115.22C218.7 114.859 218.798 114.505 218.982 114.195C219.167 113.885 219.432 113.631 219.75 113.46C224.299 111.297 229.296 110.245 234.33 110.39C240.33 110.39 245.23 111.94 248.86 115.12C252.49 118.3 254.44 122.66 254.44 128.2V143.55C254.44 145.82 255.44 147 257.44 147H257.84C258.369 146.992 258.879 147.194 259.26 147.561C259.64 147.928 259.859 148.431 259.87 148.96V148.96ZM242.63 140.08C242.635 139.749 242.554 139.423 242.397 139.132C242.239 138.842 242.01 138.596 241.73 138.42C239.335 137.039 236.604 136.347 233.84 136.42C228.77 136.42 225.56 138.6 225.56 142.33C225.56 146.33 228.69 148.23 233.08 148.23C234.818 148.315 236.551 147.989 238.139 147.279C239.727 146.568 241.126 145.493 242.22 144.14C242.494 143.793 242.639 143.362 242.63 142.92V140.08Z" />
    <path d="M268.14 145.55V95.3C268.14 94.7696 268.351 94.2609 268.726 93.8858C269.101 93.5108 269.61 93.3 270.14 93.3H278.09C278.62 93.3 279.129 93.5108 279.504 93.8858C279.879 94.2609 280.09 94.7696 280.09 95.3V142.18C280.09 145.18 281.36 146.73 283.9 146.73C284.153 146.746 284.407 146.746 284.66 146.73C284.945 146.69 285.236 146.711 285.512 146.794C285.788 146.876 286.042 147.017 286.259 147.207C286.475 147.397 286.648 147.631 286.766 147.894C286.883 148.157 286.943 148.442 286.94 148.73V155.26C286.917 155.649 286.781 156.023 286.548 156.336C286.315 156.648 285.996 156.886 285.63 157.02C283.63 157.757 281.511 158.113 279.38 158.07C272.87 158.08 268.14 154.63 268.14 145.55Z" />
    <path d="M292.81 152.7V145.93C292.816 145.597 292.905 145.271 293.068 144.981C293.232 144.691 293.465 144.447 293.748 144.27C294.03 144.093 294.351 143.99 294.684 143.969C295.016 143.948 295.348 144.01 295.65 144.15C300.124 146.386 305.048 147.576 310.05 147.63C314.86 147.63 317.31 146.36 317.31 143.82C317.31 142.64 316.8 141.73 315.2 141C314.493 140.664 313.756 140.393 313 140.19L309.88 139.37C308.44 138.91 307.26 138.64 306.5 138.37C296.78 135.55 292.81 132.28 292.81 124.29C292.81 115.66 299.81 110.39 311.4 110.39C317.28 110.39 322.28 111.57 326.28 113.98C326.562 114.161 326.793 114.409 326.954 114.703C327.115 114.996 327.199 115.325 327.2 115.66V122.08C327.195 122.42 327.103 122.752 326.933 123.047C326.764 123.341 326.522 123.588 326.231 123.763C325.94 123.938 325.609 124.036 325.269 124.048C324.93 124.06 324.593 123.985 324.29 123.83C320.463 121.834 316.216 120.778 311.9 120.75C307.43 120.75 305.14 121.93 305.14 124.38C305.14 125.93 306.24 126.56 307.51 127.38C308.41 127.73 310.02 128.17 311.05 128.53L311.25 128.58L315.62 129.58C324.75 131.85 329.39 136.03 329.39 143.93C329.436 145.929 328.989 147.909 328.089 149.694C327.189 151.48 325.864 153.017 324.23 154.17C320.77 156.81 316.23 158.08 310.54 158.08C303.54 158.08 297.96 156.83 293.75 154.39C293.458 154.216 293.218 153.968 293.053 153.671C292.888 153.374 292.804 153.039 292.81 152.7V152.7Z" />
  </symbol>

  <symbol id="chevron" viewBox="0 0 14 8">
    <path d="M7 7.99994C6.8684 8.0007 6.73793 7.97548 6.6161 7.92571C6.49426 7.87595 6.38344 7.80262 6.29 7.70994L1.29 2.70994C1.1017 2.52164 0.995911 2.26624 0.995911 1.99994C0.995911 1.73364 1.1017 1.47824 1.29 1.28994C1.47831 1.10164 1.7337 0.99585 2 0.99585C2.2663 0.99585 2.5217 1.10164 2.71 1.28994L7 5.58994L11.29 1.28994C11.4783 1.10164 11.7337 0.99585 12 0.99585C12.2663 0.99585 12.5217 1.10164 12.71 1.28994C12.8983 1.47824 13.0041 1.73364 13.0041 1.99994C13.0041 2.26624 12.8983 2.52164 12.71 2.70994L7.71 7.70994C7.61656 7.80262 7.50575 7.87595 7.38391 7.92571C7.26207 7.97548 7.13161 8.0007 7 7.99994Z"/>
  </symbol>

  <symbol id="siluet" viewBox="0 0 20 22">
    <path fill-rule="evenodd" clip-rule="evenodd" d="M5.32003 21.18C4.83003 21.13 4.54003 20.95 4.22003 20.62C3.91003 20.29 3.68003 19.68 3.26003 19.26C2.89003 18.89 2.55003 18.87 2.11003 18.45C1.67003 18.03 1.50003 17.65 1.48003 16.94C1.46003 16.15 1.64003 15.26 1.70003 14.98C1.94003 13.91 2.30003 12.77 2.47003 12.2C2.64003 11.61 2.60003 10.82 2.44003 10.19C2.26003 9.46997 2.04003 8.85997 1.84003 8.25997C1.58003 7.48997 1.42003 7.03997 1.18003 6.10997C1.11003 5.84997 0.930034 5.03997 0.900034 4.45997C0.880034 4.06997 1.05003 3.88997 1.29003 3.81997C1.51003 3.74997 1.98003 3.81997 2.12003 4.24997C2.44003 5.23997 2.52003 5.74997 2.75003 6.46997C2.92003 7.00997 3.12003 7.53997 3.30003 8.00997C3.56003 8.68997 4.15003 9.86997 4.38003 10.05C4.71003 10.31 4.86003 10.24 5.08003 10.16C5.22003 10.11 5.49003 9.90997 5.53003 9.69997C5.69003 8.92997 5.71003 8.21997 5.82003 7.60997C6.04003 6.38997 6.27003 5.57997 6.40003 5.02997C6.76003 3.51997 6.79003 3.16997 7.10003 1.88997C7.17003 1.58997 7.33003 1.06997 7.61003 0.87997C8.02003 0.60997 8.39003 0.82997 8.49003 1.00997C8.61003 1.21997 8.64003 1.65997 8.58003 2.01997C8.47003 2.62997 8.07003 4.14997 7.96003 4.71997C7.88003 5.17997 7.79003 5.80997 7.71003 6.85997C7.63003 7.84997 7.40003 8.83997 7.60003 9.30997C7.73003 9.61997 8.08003 9.60997 8.40003 9.40997C8.68003 9.23997 8.98003 8.23997 9.40003 7.32997C9.80003 6.47997 10.29 5.59997 10.4 5.33997C11.4 2.92997 11.56 2.55997 11.87 1.97997C12.16 1.42997 12.59 1.37997 12.95 1.54997C13.24 1.68997 13.4 2.16997 13.08 2.97997C12.63 4.11997 12.15 5.07997 11.86 5.83997C11.45 6.91997 11.13 7.65997 10.88 8.16997C10.44 9.03997 10.31 9.27997 10.2 9.51997C10.09 9.74997 9.94003 10.35 10.22 10.61C10.47 10.84 11.03 10.86 11.58 10.28C12.09 9.73997 12.57 9.13997 13.21 8.42997C13.62 7.96997 14.12 7.47997 14.62 6.89997C15.21 6.20997 15.63 5.41997 16.3 4.80997C16.54 4.58997 16.94 4.56997 17.15 4.72997C17.31 4.84997 17.42 5.14997 17.36 5.44997C17.3 5.74997 16.94 6.34997 16.73 6.60997C16.27 7.18997 16.07 7.45997 15.58 8.00997C15.03 8.62997 14.7 9.10997 14.37 9.47997C13.98 9.91997 13.59 10.36 13.02 10.99C12.7 11.34 11.86 12.41 11.64 12.87C11.42 13.34 11.14 13.77 11.03 14.4C10.92 14.99 10.99 15.47 11.13 15.93C11.29 16.42 11.9 17.11 12.45 17.18C13.15 17.26 13.92 17.32 14.84 17.04C15.81 16.75 16.57 16.4 17.71 16.66C18.56 16.86 18.65 17.05 18.85 17.25C19.1 17.5 19.18 17.95 18.96 18.13C18.73 18.31 18.19 18.47 17.69 18.54C16.8 18.66 15.66 18.67 14.92 18.69C14.18 18.71 13.33 18.93 12.81 19.15C12.16 19.42 11.17 19.68 10.8 19.85C10.68 19.91 9.88003 20.32 9.79003 20.37C9.39003 20.59 8.66003 20.88 8.18003 20.98C7.17003 21.19 6.35003 21.24 5.32003 21.14V21.18Z"/>
  </symbol>

  <symbol id="arrow" viewBox="0 0 15 16">
    <path d="M13.9863 7.29L8.18633 1.29C8.09646 1.19627 7.98955 1.12188 7.87175 1.07111C7.75395 1.02034 7.6276 0.994202 7.49999 0.994202C7.37238 0.994202 7.24603 1.02034 7.12823 1.07111C7.01044 1.12188 6.90352 1.19627 6.81366 1.29L1.01366 7.29C0.831632 7.4783 0.72937 7.7337 0.72937 8C0.72937 8.2663 0.831632 8.5217 1.01366 8.71C1.19569 8.8983 1.44257 9.00409 1.69999 9.00409C1.95742 9.00409 2.2043 8.8983 2.38633 8.71L6.53333 4.41V15C6.53333 15.2652 6.63517 15.5196 6.81646 15.7071C6.99774 15.8946 7.24362 16 7.49999 16C7.75637 16 8.00224 15.8946 8.18353 15.7071C8.36481 15.5196 8.46666 15.2652 8.46666 15V4.41L12.6137 8.71C12.7035 8.80373 12.8104 8.87812 12.9282 8.92889C13.046 8.97966 13.1724 9.0058 13.3 9.0058C13.4276 9.0058 13.554 8.97966 13.6717 8.92889C13.7895 8.87812 13.8965 8.80373 13.9863 8.71C14.0769 8.61704 14.1488 8.50644 14.1979 8.38458C14.247 8.26272 14.2723 8.13201 14.2723 8C14.2723 7.86799 14.247 7.73728 14.1979 7.61542C14.1488 7.49356 14.0769 7.38296 13.9863 7.29Z"/>
  </symbol>

  <symbol id="wide-arrow" viewBox="0 0 10 10">
    <path d="M9.92002 3.62C9.845 3.43738 9.7176 3.28105 9.55388 3.17072C9.39016 3.06039 9.19744 3.00099 9.00002 3H8.00002V1C8.00002 0.734784 7.89466 0.48043 7.70712 0.292893C7.51959 0.105357 7.26523 0 7.00002 0H3.00002C2.7348 0 2.48045 0.105357 2.29291 0.292893C2.10537 0.48043 2.00002 0.734784 2.00002 1V3H1.00002C0.802592 3.00099 0.609875 3.06039 0.446155 3.17072C0.282435 3.28105 0.155037 3.43738 0.0800172 3.62C0.00343777 3.80211 -0.0174847 4.00282 0.0198895 4.19681C0.0572636 4.3908 0.15126 4.56938 0.290017 4.71L4.29002 8.71C4.38298 8.80373 4.49358 8.87812 4.61544 8.92889C4.7373 8.97966 4.86801 9.0058 5.00002 9.0058C5.13203 9.0058 5.26273 8.97966 5.38459 8.92889C5.50645 8.87812 5.61705 8.80373 5.71002 8.71L9.71002 4.71C9.84877 4.56938 9.94277 4.3908 9.98014 4.19681C10.0175 4.00282 9.9966 3.80211 9.92002 3.62Z"/>
  </symbol>


</svg>